<svg id="Icons" enable-background="new 0 0 512 512" height="512" viewBox="0 0 512 512" width="512" xmlns="http://www.w3.org/2000/svg"><g><g><circle cx="256" cy="256" fill="#f75a45" r="256"/><path d="m504.01 319.71c-28.32 110.56-128.62 192.29-248.01 192.29-141.38 0-256-114.62-256-256 0-44.76 11.49-86.83 31.68-123.44 1.22.65 2.43 1.36 3.61 2.13 18.71 12.2 25.96 36.31 26.69 58.63.57 17.61-1.86 36.13 5.51 52.13 10.85 23.6 40.18 33.69 66.02 31.13 25.85-2.57 49.52-14.9 73.39-25.14 23.4-10.04 48.07-18.33 73.53-18.83 25.45-.49 51.98 7.69 69.27 26.38 9.32 10.09 16.92 23.66 30.29 26.79 10.9 2.55 22.2-3.06 30.49-10.58 8.3-7.52 14.63-16.98 22.8-24.64 11.9-11.14 30.74-17.97 44.41-9.09 9.48 6.16 13.57 18.02 14.97 29.25 1.41 11.22.81 22.77 3.9 33.66 1.57 5.5 4.12 10.68 7.45 15.33z" fill="#d3493a"/></g><g><g><g><path d="m471.434 240.071v138.379c0 2.148-1.742 3.89-3.89 3.89h-221.057c-2.148 0-3.89-1.742-3.89-3.89v-138.379c0-2.148 1.742-3.89 3.89-3.89h221.058c2.148 0 3.889 1.742 3.889 3.89z" fill="#eea47d"/><path d="m471.434 240.071v126.7h-203.886c-5.181 0-9.381-4.2-9.381-9.381v-121.209h209.378c2.148 0 3.889 1.742 3.889 3.89z" fill="#f5b890"/><path d="m467.543 236.181h-53.384v146.16h53.384c2.148 0 3.89-1.742 3.89-3.89v-138.38c0-2.148-1.741-3.89-3.89-3.89z" fill="#d48d77"/><path d="m467.543 382.341h-53.384v-15.571h57.274v11.681c0 2.149-1.741 3.89-3.89 3.89z" fill="#c17e62"/></g><g fill="#3e4e60"><path d="m361.253 284.658v20.455h10.669v-20.455h7.965l-13.3-23.033-13.299 23.033z"/><path d="m387.35 263.32v41.793h10.669v-41.793h7.966l-13.3-23.033-13.3 23.033z"/></g><path d="m311.039 236.181h27.565v33.065h-27.565z" fill="#bf5e39"/></g><g><g><path d="m260.657 280.346v122.881c0 1.908-1.547 3.454-3.454 3.454h-196.299c-1.908 0-3.454-1.547-3.454-3.454v-122.881c0-1.908 1.547-3.454 3.454-3.454h196.299c1.907 0 3.454 1.546 3.454 3.454z" fill="#eea47d"/><path d="m260.657 280.346v112.509h-181.051c-4.601 0-8.33-3.73-8.33-8.33v-107.633h185.927c1.907 0 3.454 1.546 3.454 3.454z" fill="#f5b890"/><path d="m257.201 276.892h-47.405v129.79h47.405c1.908 0 3.454-1.547 3.454-3.454v-122.882c.001-1.908-1.546-3.454-3.454-3.454z" fill="#d48d77"/><path d="m257.201 406.681h-47.405v-13.827h50.859v10.372c.001 1.909-1.546 3.455-3.454 3.455z" fill="#c17e62"/></g><g fill="#3e4e60"><path d="m162.816 322.008v18.164h9.474v-18.164h7.073l-11.81-20.453-11.81 20.453z"/><path d="m185.99 303.06v37.112h9.474v-37.112h7.074l-11.811-20.453-11.81 20.453z"/></g><path d="m118.226 276.892h24.478v34.108h-24.478z" fill="#bf5e39"/></g><g><g><path d="m439.519 147.518v86.24c0 1.339-1.085 2.424-2.424 2.424h-137.766c-1.339 0-2.424-1.085-2.424-2.424v-86.24c0-1.339 1.085-2.424 2.424-2.424h137.765c1.339-.001 2.425 1.085 2.425 2.424z" fill="#eea47d"/><path d="m439.519 147.518v78.961h-127.065c-3.229 0-5.846-2.618-5.846-5.846v-75.538h130.487c1.338-.002 2.424 1.084 2.424 2.423z" fill="#f5b890"/><path d="m437.094 145.094h-33.27v91.089h33.27c1.339 0 2.424-1.085 2.424-2.424v-86.24c0-1.34-1.085-2.425-2.424-2.425z" fill="#d48d77"/><path d="m437.094 236.182h-33.27v-9.704h35.694v7.28c0 1.339-1.085 2.424-2.424 2.424z" fill="#c17e62"/></g><g fill="#3e4e60"><path d="m370.852 175.56v12.748h6.649v-12.748h4.965l-8.289-14.354-8.289 14.354z"/><path d="m387.117 162.262v26.046h6.649v-26.046h4.964l-8.289-14.354-8.288 14.354z"/></g><path d="m339.558 145.093h17.179v21.66h-17.179z" fill="#bf5e39"/></g><g><g><path d="m260.657 71.094v203.181c0 1.445-1.288 2.617-2.878 2.617h-163.543c-1.589 0-2.878-1.172-2.878-2.617v-203.181c0-1.445 1.288-2.617 2.878-2.617h163.542c1.59 0 2.879 1.171 2.879 2.617z" fill="#eea47d"/><path d="m260.657 71.094v195.323h-150.839c-3.833 0-6.94-2.826-6.94-6.311v-191.629h154.901c1.589 0 2.878 1.171 2.878 2.617z" fill="#f5b890"/><path d="m257.911 68.477h-39.628v208.416h39.628c1.516 0 2.744-1.229 2.744-2.744v-202.928c.001-1.515-1.228-2.744-2.744-2.744z" fill="#d48d77"/><path d="m257.911 276.892h-39.628v-10.475h42.372v7.731c.001 1.516-1.228 2.744-2.744 2.744z" fill="#c17e62"/></g><g fill="#3e4e60"><path d="m179.143 108.496v13.761h7.893v-13.761h5.893l-9.84-15.495-9.839 15.495z"/><path d="m198.45 94.141v28.116h7.893v-28.116h5.893l-9.839-15.496-9.84 15.496z"/></g><path d="m141.993 68.477h20.393v40.019h-20.393z" fill="#bf5e39"/></g><g><path d="m117.441 142.469h82.627v93.456h-82.627z" fill="#f9f2f9"/><g><g><path d="m174.497 222.251v1.902h-29.98v-1.902c0-.938.304-1.806.823-2.51.772-1.06 2.02-1.745 3.432-1.745h21.47c1.412 0 2.66.685 3.432 1.745.519.704.823 1.571.823 2.51z" fill="#6052a3"/><path d="m173.674 219.741c-.775 1.057-2.023 1.742-3.432 1.742h-21.47c-1.409 0-2.657-.685-3.432-1.742.772-1.06 2.02-1.745 3.432-1.745h21.47c1.412 0 2.661.685 3.432 1.745z" fill="#7063ce"/></g><g><path d="m152.633 186.363h13.749v8.429h-13.749z" fill="#6db7e2"/><path d="m156.756 194.791h5.503v23.206h-5.503z" fill="#6db7e2"/><path d="m156.756 186.363h9.626v8.429h-9.626z" fill="#79c7fd"/><path d="m159.206 194.791h3.053v23.206h-3.053z" fill="#79c7fd"/><ellipse cx="163.506" cy="190.292" fill="#cde6f6" rx="1.459" ry="2.966"/></g><g><path d="m146.549 186.363h1.868v15.084h-1.868z" fill="#908dff"/><circle cx="147.483" cy="201.447" fill="#79c7fd" r="3.667"/></g><g><path d="m178.18 152.641v31.888c0 1.015-.82 1.835-1.831 1.835h-35.188c-1.012 0-1.831-.82-1.831-1.835v-31.888c0-1.012.82-1.835 1.831-1.835h35.188c1.011 0 1.831.823 1.831 1.835z" fill="#6052a3"/><path d="m178.18 152.641v31.888c0 1.015-.82 1.835-1.831 1.835h-29.799c-1.012 0-1.835-.82-1.835-1.835v-31.888c0-1.012.823-1.835 1.835-1.835h29.799c1.011 0 1.831.823 1.831 1.835z" fill="#7063ce"/><g fill="#7d73ff"><ellipse cx="168.757" cy="161.259" rx="4.68" ry="6.79"/><ellipse cx="168.757" cy="175.841" rx="2.326" ry="4.263"/></g></g></g><g fill="#bf5e39"><path d="m190.509 130.724h6.411v36.197h-6.411z" transform="matrix(.707 -.707 .707 .707 -48.496 180.566)"/><path d="m120.589 130.724h6.411v36.197h-6.411z" transform="matrix(-.707 -.707 .707 -.707 106.097 341.592)"/><path d="m120.589 211.473h6.411v36.197h-6.411z" transform="matrix(-.707 .707 -.707 -.707 373.662 304.367)"/><path d="m190.509 211.473h6.411v36.197h-6.411z" transform="matrix(.707 .707 -.707 .707 219.069 -69.737)"/></g></g><g><g><path d="m306.097 175.27h56.207v52.725h-56.207z" fill="#f9f2f9"/><g fill="#bf5e39"><path d="m352.745 168.768h6.411v25.712h-6.411z" transform="matrix(.707 -.707 .707 .707 -24.172 304.891)"/><path d="m309.245 168.302h6.411v26.644h-6.411z" transform="matrix(-.707 -.707 .707 -.707 404.96 530.987)"/><path d="m309.245 209.033h6.411v25.216h-6.411z" transform="matrix(-.707 .707 -.707 -.707 690.111 157.429)"/><path d="m352.745 208.303h6.411v26.676h-6.411z" transform="matrix(.707 .707 -.707 .707 260.979 -186.778)"/></g></g><g id="Lightbulb_2_"><g><path d="m347.082 190.649c0 3.375-1.781 6.073-3.428 8.73-.156.253-.324.577-.502.958-.405.864-.848 2.002-1.266 3.15-.876 2.417-1.631 4.872-1.631 4.872h-12.105s-2.14-6.937-3.4-8.98c-.262-.421-.527-.842-.786-1.269-1.382-2.261-2.645-4.622-2.645-7.461 0-2.86.933-5.505 2.514-7.642 2.342-3.178 6.116-5.24 10.368-5.24 1.148 0 2.258.15 3.316.434 2.049.543 3.896 1.578 5.408 2.969 2.557 2.355 4.157 5.73 4.157 9.479z" fill="#f39e22"/><path d="m347.082 190.649c0 3.375-1.781 6.073-3.428 8.73-.156.253-.324.577-.502.958-.405.864-.848 2.002-1.266 3.15-.346.028-.699.044-1.051.044-7.114 0-12.882-5.767-12.882-12.882 0-5.967 4.058-10.985 9.563-12.448 2.049.543 3.896 1.578 5.408 2.969 2.558 2.355 4.158 5.73 4.158 9.479z" fill="#f7c845"/><g fill="#fad98f"><ellipse cx="339.478" cy="184.613" rx="2.667" ry="4.108" transform="matrix(.94 -.34 .34 .94 -42.555 126.492)"/><ellipse cx="342.478" cy="192.905" rx="1.429" ry="2.441" transform="matrix(.94 -.34 .34 .94 -45.197 128.007)"/></g></g><g><path d="m338.764 219.104v1.831c0 1.899-1.163 3.531-2.813 4.217-.54.221-1.129.346-1.75.346-2.517 0-4.56-2.043-4.56-4.563v-1.831z" fill="#2e3140"/><path d="m338.764 219.104v1.831c0 1.899-1.163 3.531-2.813 4.217-1.653-.686-2.816-2.314-2.816-4.217v-1.831z" fill="#3e4e60"/><path d="m338.764 219.104v1.831c0 1.899-1.163 3.531-2.813 4.217-.54.221-1.129.346-1.75.346-2.517 0-4.56-2.043-4.56-4.563v-1.831z" fill="none"/></g><g><path d="m332.18 199.434h4.044v8.925h-4.044z" fill="#cb6c22"/><path d="m334.202 199.434h2.022v8.925h-2.022z" fill="#ea8022"/><path d="m340.177 198.162c0 .25-.034.49-.103.714-.309 1.045-1.276 1.806-2.417 1.806h-6.909c-.696 0-1.326-.284-1.781-.739s-.739-1.085-.739-1.781c0-1.391 1.129-2.52 2.52-2.52h6.909c.696 0 1.326.284 1.781.739.458.456.739 1.086.739 1.781z" fill="#cb6c22"/><path d="m340.177 198.162c0 .25-.034.49-.103.714h-6.544c-.696 0-1.326-.281-1.781-.739-.455-.455-.739-1.085-.739-1.781 0-.25.037-.49.103-.714h6.544c.696 0 1.326.284 1.781.739.458.456.739 1.086.739 1.781z" fill="#ea8022"/></g><g><path d="m343.786 211.73c.009 1.834-1.946 2.171-3.368 3.369-.281.24-.24 1.45-.24 1.45 0 2.726-1.825 5.025-4.32 5.742-.527.153-1.082.234-1.656.234-3.312.022-5.998-2.757-5.973-5.976 0 0 .041-1.21-.24-1.45-1.419-1.204-3.369-1.51-3.369-3.369 0-1.862 1.507-3.372 3.369-3.372h12.429c1.862 0 3.368 1.51 3.368 3.372z" fill="#6db7e2"/><path d="m343.786 211.73c.009 1.834-1.946 2.171-3.368 3.369-.281.24-.24 1.45-.24 1.45 0 2.726-1.825 5.025-4.32 5.742-2.505-.724-4.335-3.085-4.314-5.742 0 0 .041-1.21-.24-1.45-1.419-1.204-3.369-1.51-3.369-3.369 0-1.862 1.506-3.372 3.369-3.372h9.114c1.862 0 3.368 1.51 3.368 3.372z" fill="#79c7fd"/><g fill="#cde6f6"><ellipse cx="336.476" cy="212.059" rx="1.753" ry="3.01"/><ellipse cx="336.476" cy="218.154" rx=".847" ry="1.711"/></g></g></g></g><g><g><path d="m270.798 284.374h78.224v78.044h-78.224z" fill="#f9f2f9"/><g fill="#bf5e39"><path d="m339.463 272.629h6.411v36.197h-6.411z" transform="matrix(.707 -.707 .707 .707 -105.21 327.455)"/><path d="m273.946 272.629h6.411v36.197h-6.411z" transform="matrix(-.707 -.707 .707 -.707 267.553 692.279)"/><path d="m273.946 337.966h6.411v36.197h-6.411z" transform="matrix(-.707 .707 -.707 -.707 724.904 411.864)"/><path d="m339.463 337.966h6.411v36.197h-6.411z" transform="matrix(.707 .707 -.707 .707 352.141 -138.014)"/></g></g><g><path d="m331.508 347.95-16.355-.859v-7.271h-10.487v7.271l-16.355.859c-.303.016-.545.398-.545.853s.242.824.545.824h16.355 10.487 16.355c.303 0 .545-.369.545-.824s-.242-.837-.545-.853z" fill="#334353"/><g><g><path d="m341.316 299.52v38.953c0 .744-.604 1.348-1.348 1.348h-60.116c-.744 0-1.348-.604-1.348-1.348v-38.953c0-.743.604-1.346 1.348-1.346h60.116c.745-.001 1.348.603 1.348 1.346z" fill="#334353"/></g><g><path d="m341.316 336.342v2.131c0 .744-.604 1.348-1.348 1.348h-60.116c-.744 0-1.348-.604-1.348-1.348v-2.131z" fill="#3f5d77"/></g><g><path d="m315.153 338.081c0 .228-.092.435-.242.584-.15.15-.357.242-.584.242h-8.832c-.457 0-.828-.37-.828-.826 0-.228.092-.437.242-.586.15-.15.358-.242.586-.242h8.832c.457 0 .826.371.826.828z" fill="#334353"/></g><path d="m335.475 301.332h-33.147c-.48 0-.869-.389-.869-.869 0-.48.389-.869.869-.869h33.147c.48 0 .869.389.869.869.001.48-.389.869-.869.869z" fill="#3f5d77"/></g><g><path d="m336.022 334.922h-52.224c-.686 0-1.242-.556-1.242-1.242v-31.106c0-.686.556-1.242 1.242-1.242h52.224c.686 0 1.242.556 1.242 1.242v31.106c0 .686-.556 1.242-1.242 1.242z" fill="#b9d8e6"/><g fill="#cbedff"><ellipse cx="329.061" cy="310.789" rx="3.434" ry="6.408"/><ellipse cx="329.061" cy="324.17" rx="1.735" ry="4.142"/></g></g></g></g><g><g><path d="m81.632 327.879h71.619v60.431h-71.619z" fill="#f9f2f9"/><g fill="#bf5e39"><path d="m143.691 316.134h6.411v36.197h-6.411z" transform="matrix(.707 -.707 .707 .707 -193.313 201.766)"/><path d="m84.78 316.134h6.411v36.197h-6.411z" transform="matrix(-.707 -.707 .707 -.707 -86.138 632.786)"/><path d="m84.78 363.858h6.411v36.197h-6.411z" transform="matrix(-.707 .707 -.707 -.707 420.284 589.825)"/><path d="m143.691 363.858h6.411v36.197h-6.411z" transform="matrix(.707 .707 -.707 .707 313.109 8.001)"/></g></g><g><path d="m101.939 348.919h-6.564c-2.845 0-4.994 2.58-4.479 5.378l1.962 10.657c.398 2.161 2.282 3.729 4.479 3.729h8.399l-2.472-4.392h-4.355c-1.164 0-2.16-.839-2.357-1.986l-1.11-6.447c-.252-1.462.874-2.798 2.357-2.798h4.14" fill="#429fce"/><path d="m101.939 342.195v15.139c0 10.418 8.444 18.862 18.862 18.862.889 0 1.766-.06 2.622-.18 9.173-1.277 16.236-9.153 16.236-18.682v-15.139z" fill="#6db7e2"/><path d="m107.184 342.195v15.139c0 9.529 7.063 17.405 16.24 18.682 9.173-1.277 16.236-9.153 16.236-18.682v-15.139z" fill="#79c7fd"/><g fill="#cde6f6"><ellipse cx="132.185" cy="350.662" rx="3.364" ry="5.447"/><ellipse cx="132.185" cy="361.541" rx="2.054" ry="3.874"/></g></g></g></g></g></svg>