<svg id="Capa_1" enable-background="new 0 0 497 497" height="512" viewBox="0 0 497 497" width="512" xmlns="http://www.w3.org/2000/svg"><g><g><path d="m370.671 182.401c-1.982 0-3.96-.781-5.435-2.331l-97.622-102.609c-10.559-10.491-27.67-10.491-38.229 0l-97.621 102.609c-2.854 3.001-7.603 3.119-10.604.264s-3.119-7.602-.264-10.603l97.689-102.68c.043-.045.086-.09.131-.134 16.422-16.423 43.145-16.423 59.566 0 .045.044.088.088.131.134l97.689 102.68c2.855 3.001 2.737 7.748-.264 10.603-1.45 1.381-3.311 2.067-5.167 2.067z" fill="#fedba6"/></g><g><path d="m470.773 442.4h-444.546c-14.485 0-26.227-11.742-26.227-26.227v-220.043c0-14.485 11.742-26.227 26.227-26.227h444.546c14.485 0 26.227 11.742 26.227 26.227v220.043c0 14.485-11.742 26.227-26.227 26.227z" fill="#c8effe"/><path d="m442.361 442.4h-387.722c-14.485 0-26.227-11.742-26.227-26.227v-220.043c0-14.485 11.742-26.227 26.227-26.227h387.722c14.485 0 26.227 11.742 26.227 26.227v220.043c0 14.485-11.742 26.227-26.227 26.227z" fill="#ee6161"/><path d="m442.361 169.904h-29.555c14.485 0 26.227 11.742 26.227 26.227v220.042c0 14.485-11.742 26.227-26.227 26.227h29.555c14.485 0 26.227-11.742 26.227-26.227v-220.043c0-14.484-11.743-26.226-26.227-26.226z" fill="#e94444"/></g><circle cx="248.5" cy="95.136" fill="#fedba6" r="8.322"/><g><g fill="#eaf6ff"><path d="m165.417 327.677c-.015 0-.028 0-.043 0-5.015.028-10.395.048-14.539.052v-55.559c0-4.142-3.357-7.5-7.5-7.5s-7.5 3.358-7.5 7.5v63.006c0 3.655 2.635 6.777 6.236 7.393.528.09.957.164 8 .164 3.37 0 8.254-.017 15.387-.057 4.142-.023 7.481-3.4 7.458-7.542-.023-4.127-3.376-7.457-7.499-7.457z"/><path d="m361.776 279.671c4.143 0 7.5-3.358 7.5-7.5s-3.357-7.5-7.5-7.5h-26.328c-4.143 0-7.5 3.358-7.5 7.5v62.483c0 4.142 3.357 7.5 7.5 7.5h26.328c4.143 0 7.5-3.358 7.5-7.5s-3.357-7.5-7.5-7.5h-18.828v-16.242h16.888c4.143 0 7.5-3.358 7.5-7.5s-3.357-7.5-7.5-7.5h-16.888v-16.242h18.828z"/><path d="m406.4 265.603h-17.332c-1.991 0-3.901.792-5.309 2.202-1.406 1.41-2.195 3.321-2.191 5.313v.048.002 60.137c0 .51.052 1.007.149 1.488.12 1.818.891 3.538 2.192 4.829 1.404 1.395 3.304 2.177 5.283 2.177h.028c.524-.002 12.881-.05 17.817-.136 18.296-.32 31.574-16.285 31.574-37.961.001-22.789-12.944-38.099-32.211-38.099zm.376 61.061c-2.319.041-6.438.073-10.109.096-.023-7.233-.054-17.833-.054-23.126 0-4.425-.018-15.505-.031-23.03h9.818c12.69 0 17.212 11.931 17.212 23.097 0 15.659-8.456 22.816-16.836 22.963z"/><path d="m122.101 320.583c-3.174-2.662-7.904-2.247-10.565.927-.562.669-1.167 1.294-1.802 1.859-3.249 2.894-7.393 4.361-12.315 4.361-13.25 0-24.03-10.78-24.03-24.03s10.78-24.03 24.03-24.03c4.816 0 9.46 1.417 13.43 4.099 3.433 2.32 8.095 1.417 10.413-2.016s1.416-8.094-2.017-10.413c-6.458-4.364-14.006-6.67-21.826-6.67-21.521 0-39.03 17.509-39.03 39.03s17.509 39.03 39.03 39.03c8.59 0 16.298-2.822 22.29-8.158 1.175-1.045 2.292-2.197 3.319-3.423 2.661-3.174 2.246-7.905-.927-10.566z"/><path d="m298.359 297.161c-7.811-2.881-15.076-6.02-17.237-6.966-1.91-1.501-1.848-3.612-1.723-4.488.171-1.186 1.026-4.082 5.284-5.365 9.089-2.74 17.484 3.903 17.707 4.083 3.172 2.631 7.875 2.212 10.53-.946 2.665-3.171 2.256-7.902-.915-10.567-.589-.495-14.617-12.066-31.648-6.932-8.562 2.579-14.618 9.321-15.806 17.596-1.112 7.754 2.248 15.213 8.771 19.466.331.216.679.405 1.04.566.364.163 9.036 4.023 18.805 7.626 2.855 1.053 9.4 4.039 8.513 9.011-.657 3.679-5.099 7.485-11.393 7.485-6.373 0-12.511-2.574-16.417-6.884-2.782-3.07-7.526-3.301-10.594-.521-3.069 2.781-3.303 7.524-.521 10.594 6.703 7.396 16.995 11.811 27.532 11.811 13.104 0 24.105-8.348 26.158-19.849 1.544-8.639-2.397-19.933-18.086-25.72z"/><path d="m214.812 264.671c-21.521 0-39.029 17.509-39.029 39.03s17.509 39.03 39.029 39.03c21.521 0 39.03-17.509 39.03-39.03s-17.509-39.03-39.03-39.03zm0 63.059c-13.25 0-24.029-10.78-24.029-24.03s10.779-24.03 24.029-24.03 24.03 10.78 24.03 24.03-10.78 24.03-24.03 24.03z"/></g></g><g><g><path d="m431.112 228.445h-365.224c-4.143 0-7.5-3.358-7.5-7.5s3.357-7.5 7.5-7.5h365.225c4.143 0 7.5 3.358 7.5 7.5s-3.358 7.5-7.501 7.5z" fill="#e94444"/></g></g><g><g><path d="m431.112 399.351h-41.648c-4.143 0-7.5-3.358-7.5-7.5s3.357-7.5 7.5-7.5h41.648c4.143 0 7.5 3.358 7.5 7.5s-3.357 7.5-7.5 7.5z" fill="#e94444"/></g></g><g><g><path d="m353.776 399.351h-287.888c-4.143 0-7.5-3.358-7.5-7.5s3.357-7.5 7.5-7.5h287.889c4.143 0 7.5 3.358 7.5 7.5s-3.358 7.5-7.501 7.5z" fill="#e94444"/></g></g></g></svg>