<svg enable-background="new 0 0 36 36" height="512" viewBox="0 0 36 36" width="512" xmlns="http://www.w3.org/2000/svg"><g id="bg"><g><path d="m27.417 3.914c-6.915.129-11.732-3.365-15.064-3.302s-10.296 2.109-10.009 17.44 9.744 17.404 13.41 17.336c17.163-.321 23.911-31.703 11.663-31.474z" fill="#efefef"/></g></g><g id="effect"><g><g><path d="m27.497 32.139h2v1h-2z" fill="#a4afc1" transform="matrix(.707 -.707 .707 .707 -14.732 29.71)"/></g><g><path d="m31.564 28.073h2v1h-2z" fill="#a4afc1" transform="matrix(.707 -.707 .707 .707 -10.667 31.395)"/></g><g><path d="m32.064 31.816h1v2h-1z" fill="#a4afc1" transform="matrix(.707 -.707 .707 .707 -13.666 32.637)"/></g></g><g><path d="m32.563 5.312c-.827 0-1.5-.673-1.5-1.5s.673-1.5 1.5-1.5 1.5.673 1.5 1.5-.672 1.5-1.5 1.5zm0-2c-.275 0-.5.225-.5.5s.225.5.5.5.5-.225.5-.5-.224-.5-.5-.5z" fill="#a4afc1"/></g></g><g id="color"><g><path d="m18.25 27.25h-10.5c-.552 0-1-.448-1-1v-10c0-.552.448-1 1-1h10.5c.552 0 1 .448 1 1v10c0 .552-.448 1-1 1z" fill="#f3f3f1"/></g><g><path d="m28.25 11.25h-20.5c-.552 0-1-.448-1-1v-2.5c0-.552.448-1 1-1h20.5c.552 0 1 .448 1 1v2.5c0 .552-.448 1-1 1z" fill="#2fdf84"/></g></g><g id="shadow"><g><path d="m9 26.25v-10c0-.552.448-1 1-1h-2.25c-.552 0-1 .448-1 1v10c0 .552.448 1 1 1h2.25c-.552 0-1-.448-1-1z" fill="#d5dbe1"/></g><g><path d="m9 10.25v-2.5c0-.552.448-1 1-1h-2.25c-.552 0-1 .448-1 1v2.5c0 .552.448 1 1 1h2.25c-.552 0-1-.448-1-1z" fill="#00b871"/></g></g><g id="regular"><g><path d="m22.75 14.5h6.5v1.5h-6.5z"/></g><g><path d="m22.75 17.5h6.5v1.5h-6.5z"/></g><g><path d="m22.75 20.5h6.5v1.5h-6.5z"/></g><g><path d="m22.75 23.5h6.5v1.5h-6.5z"/></g><g><path d="m22.75 26.5h6.5v1.5h-6.5z"/></g><g><path d="m18.25 28h-10.5c-.965 0-1.75-.785-1.75-1.75v-10c0-.965.785-1.75 1.75-1.75h10.5c.965 0 1.75.785 1.75 1.75v10c0 .965-.785 1.75-1.75 1.75zm-10.5-12c-.138 0-.25.112-.25.25v10c0 .138.112.25.25.25h10.5c.138 0 .25-.112.25-.25v-10c0-.138-.112-.25-.25-.25z"/></g><g><path d="m28.25 12h-20.5c-.965 0-1.75-.785-1.75-1.75v-2.5c0-.965.785-1.75 1.75-1.75h20.5c.965 0 1.75.785 1.75 1.75v2.5c0 .965-.785 1.75-1.75 1.75zm-20.5-4.5c-.138 0-.25.112-.25.25v2.5c0 .138.112.25.25.25h20.5c.138 0 .25-.112.25-.25v-2.5c0-.138-.112-.25-.25-.25z"/></g><g><g><path d="m13 21c-.827 0-1.5-.673-1.5-1.5s.673-1.5 1.5-1.5 1.5.673 1.5 1.5-.673 1.5-1.5 1.5zm0-1.501v.002l.75-.001z"/></g><g><path d="m16 24.25h-1.5v-.375c0-.177-.257-.375-.6-.375h-1.8c-.343 0-.6.198-.6.375v.375h-1.5v-.375c0-1.034.941-1.875 2.1-1.875h1.8c1.158 0 2.1.841 2.1 1.875z"/></g></g></g></svg>